# AST/ASF file generated using VICON BodyLanguage
# -----------------------------------------------
:version 1.10
:name VICON
:units
  mass 1.0
  length 0.45
  angle deg
:documentation
   .ast/.asf automatically generated from VICON data using
   VICON BodyBuilder and BodyLanguage model FoxedUp or BRILLIANT.MOD
:root
   order TX TY TZ RX RY RZ
   axis XYZ
   position 0 0 0  
   orientation 0 0 0 
:bonedata
  begin
     id 1 
     name lhipjoint
     direction 0.528046 -0.759594 0.379717 
     length 2.39752 
     axis 0 0 0  XYZ
  end
  begin
     id 2 
     name lfemur
     direction 0.34202 -0.939693 0  
     length 7.31175  
     axis 0 0 20  XYZ
    dof rx ry rz
    limits (-160.0 20.0)
           (-70.0 70.0)
           (-60.0 70.0)
  end
  begin
     id 3 
     name ltibia
     direction 0.34202 -0.939693 0   
     length 7.52482   
     axis 0 0 20   XYZ
    dof rx
    limits (-10.0 170.0)
  end
  begin
     id 4 
     name lfoot
     direction 0.0675379 -0.185559 0.980309   
     length 2.00961   
     axis -90 7.62852e-016 20   XYZ
    dof rx rz
    limits (-45.0 90.0)
           (-70.0 20.0)
  end
  begin
     id 5 
     name ltoes
     direction 1.5352e-011 -4.22286e-011 1   
     length 1.01383   
     axis -90 7.62852e-016 20   XYZ
    dof rx
    limits (-90.0 20.0)
  end
  begin
     id 6 
     name rhipjoint
     direction -0.510274 -0.769251 0.384544   
     length 2.36742  
     axis 0 0 0  XYZ 
  end
  begin
     id 7 
     name rfemur
     direction -0.34202 -0.939693 0   
     length 7.45325   
     axis 0 0 -20   XYZ
    dof rx ry rz
    limits (-160.0 20.0)
           (-70.0 70.0)
           (-70.0 60.0)
  end
  begin
     id 8 
     name rtibia
     direction -0.34202 -0.939693 0   
     length 7.49587   
     axis 0 0 -20   XYZ
    dof rx
    limits (-10.0 170.0)
 end
 begin
     id 9 
     name rfoot
     direction -0.106475 -0.292536 0.950308   
     length 2.20898  
     axis -90 -7.62852e-016 -20   XYZ
    dof rx rz
    limits (-45.0 90.0)
           (-20.0 70.0)
  end
  begin
     id 10 
     name rtoes
     direction -1.53597e-011 -4.22023e-011 1   
     length 1.10065   
     axis -90 -7.62852e-016 -20   XYZ
    dof rx
    limits (-90.0 20.0)
  end
  begin
     id 11 
     name lowerback
     direction 0.0260024 0.998026 -0.0571652   
     length 2.11214   
     axis 0 0 0   XYZ
    dof rx ry rz
    limits (-20.0 45.0)
           (-30.0 30.0)
           (-30.0 30.0)
  end
  begin
     id 12 
     name upperback
     direction 0.0216202 0.999542 -0.0211766   
     length 2.11689   
     axis 0 0 0   XYZ
    dof rx ry rz
    limits (-20.0 45.0)
           (-30.0 30.0)
           (-30.0 30.0)
  end
  begin
     id 13 
     name thorax
     direction 0.00883312 0.999944 0.00589057   
     length 2.11821   
     axis 0 0 0   XYZ
    dof rx ry rz
    limits (-20.0 45.0)
           (-30.0 30.0)
           (-30.0 30.0)
  end
  begin
     id 14 
     name lowerneck
     direction -0.059386 0.994433 0.0870401   
     length 1.81176   
     axis 0 0 0   XYZ
    dof rx ry rz
    limits (-20.0 45.0)
           (-30.0 30.0)
           (-30.0 30.0)
  end
  begin
     id 15 
     name upperneck
     direction 0.0506457 0.97328 -0.223967   
     length 1.82382   
     axis 0 0 0   XYZ
    dof rx ry rz
    limits (-20.0 45.0)
           (-30.0 30.0)
           (-30.0 30.0)
  end
  begin
     id 16
     name head
     direction 0.0205902 0.996147 -0.0852487  
     length 1.84805  
     axis 0 0 0   XYZ
    dof rx ry rz
    limits (-20.0 45.0)
           (-30.0 30.0)
           (-30.0 30.0)
  end
  begin
     id 17 
     name lclavicle
     direction 0.949493 0.303881 -0.0782325  
     length 3.60584  
     axis 0 0 0   XYZ
    dof ry rz
    limits (-20.0 10.0)
           (0.0 20.0)
  end
  begin
     id 18 
     name lhumerus
     direction 1 -4.48965e-011 1.48782e-027   
     length 4.95681   
     axis 180 -30 -90   XYZ
    dof rx ry rz
    limits (-60.0 90.0)
           (-90.0 90.0)
           (-90.0 90.0)
  end
  begin
     id 19
     name lradius
     direction 1 -4.48952e-011 2.06528e-027   
     length 3.40915   
     axis 180 -30 -90   XYZ
    dof rx
    limits (-10.0 170.0)
  end
  begin
     id 20
     name lwrist
     direction 1 -4.48964e-011 1.28021e-027   
     length 1.70457   
     axis -1.61767e-015 90 90   XYZ
    dof ry
    limits (-180.0 0.0)
 end
  begin
     id 21 
     name lhand
     direction 1 -4.49094e-011 2.54887e-027   
     length 0.616403   
     axis -1.63363e-015 90 90   XYZ
    dof rx rz
    limits (-90.0 90.0)
           (-45.0 45.0)
  end
  begin
     id 22 
     name lfingers
     direction 1 -4.49002e-011 5.11407e-027   
     length 0.49696   
     axis -3.26723e-015 90 90   XYZ
    dof rx
    limits (0.0 90.0)
  end
  begin
     id 23
     name lthumb
     direction 0.707107 -6.34998e-011 0.707107   
     length 0.713539   
     axis -90 45 -2.25915e-014   XYZ
    dof rx rz
    limits (-45.0 45.0)
           (-45.0 45.0)
  end
  begin
     id 24 
     name rclavicle
     direction -0.937751 0.334612 -0.0930482   
     length 3.46287  
     axis 0 0 0   XYZ 
    dof ry rz
    limits (-10.0 20.0)
           (-20.0 0.0)
  end
  begin
     id 25 
     name rhumerus
     direction -1 -4.48962e-011 3.59972e-027  
     length 5.352   
     axis 180 30 90   XYZ
    dof rx ry rz
    limits (-90.0 60.0)
           (-90.0 90.0)
           (-90.0 90.0)
  end
  begin
     id 26 
     name rradius
     direction -1 -4.48987e-011 -3.76925e-027   
     length 3.43721   
     axis 180 30 90   XYZ
    dof rx
    limits (-10.0 170.0)
  end
  begin
     id 27 
     name rwrist
     direction -1 -4.48943e-011 1.28112e-027   
     length 1.7186   
     axis -1.61767e-015 -90 -90   XYZ
    dof ry
    limits (-180.0 0.0)
  end
  begin
     id 28
     name rhand
     direction -1 -4.49027e-011 2.55483e-027   
     length 0.72009   
     axis -1.63363e-015 -90 -90   XYZ
    dof rx rz
    limits (-90.0 90.0)
           (-45.0 45.0)
  end
  begin
     id 29
     name rfingers
     direction -1 -4.48827e-011 5.14506e-027   
     length 0.580555   
     axis -3.26723e-015 -90 -90   XYZ
    dof rx
    limits (0.0 90.0)
  end
  begin
     id 30
     name rthumb
     direction -0.707107 -6.34936e-011 0.707107   
     length 0.833564   
     axis -90 -45 2.25915e-014   XYZ
    dof rx rz
    limits (-45.0 45.0)
           (-45.0 45.0)
  end
:hierarchy
  begin
    root lhipjoint rhipjoint lowerback
    lhipjoint lfemur
    lfemur ltibia
    ltibia lfoot
    lfoot ltoes
    rhipjoint rfemur
    rfemur rtibia
    rtibia rfoot
    rfoot rtoes
    lowerback upperback
    upperback thorax
    thorax lowerneck lclavicle rclavicle
    lowerneck upperneck
    upperneck head
    lclavicle lhumerus
    lhumerus lradius
    lradius lwrist
    lwrist lhand lthumb
    lhand lfingers
    rclavicle rhumerus
    rhumerus rradius
    rradius rwrist
    rwrist rhand rthumb
    rhand rfingers
  end

#!OML:ASF H:\Terrain\Patient Classification 1\Terrain2\Thursday\justin.ASF
:FULLY-SPECIFIED
:DEGREES
1
root -14.4489 17.4212 -0.508076 -177.929 2.38178 -179.346
lowerback 4.82055 -0.349178 -3.95802
upperback 3.09953 -0.452926 1.26176
thorax 0.537078 -0.224611 3.5418
lowerneck -12.3847 -4.07708 -9.11339
upperneck 37.1792 -0.169377 2.09786
head 15.1768 0.228407 2.82305
rclavicle 1.93893e-015 -9.36773e-015
rhumerus -31.903 -13.5747 -73.9221
rradius 31.9454
rwrist -10.0334
rhand -21.2298 13.0506
rfingers 7.12502
rthumb 5.15246 -16.8668
lclavicle 1.93893e-015 -9.36773e-015
lhumerus -26.9401 12.7129 78.1642
lradius 22.8185
lwrist -4.41354
lhand -18.9003 23.3464
lfingers 7.12502
lthumb 7.40141 53.197
rfemur -27.9733 -6.98114 18.0318
rtibia 63.1885
rfoot -11.946 -4.67867
rtoes 2.58265
lfemur -0.552181 4.63383 -22.9738
ltibia 21.2281
lfoot -16.1039 -5.05613
ltoes 6.01806
2
root -14.455 17.4164 -0.539888 -177.991 2.11659 -179.424
lowerback 4.62555 -0.471036 -4.04751
upperback 3.36143 -0.590062 1.27703
thorax 0.930986 -0.300905 3.61095
lowerneck -13.0127 -4.1656 -8.99789
upperneck 37.5513 -0.208222 2.00875
head 15.512 0.202331 2.77694
rclavicle 5.35787e-015 -7.15625e-015
rhumerus -31.6258 -13.9742 -73.845
rradius 31.8979
rwrist -9.92596
rhand -21.0212 13.2938
rfingers 7.12502
rthumb 5.35391 -16.6185
lclavicle 5.35787e-015 -7.15625e-015
lhumerus -26.0403 13.3628 78.0599
lradius 22.1479
lwrist -5.7401
lhand -17.0002 25.146
lfingers 7.12502
lthumb 9.2351 54.9237
rfemur -28.5937 -7.8179 18.0705
rtibia 63.3788
rfoot -12.2917 -4.92837
rtoes 0.809749
lfemur -0.313403 4.71959 -23.0458
ltibia 21.0572
lfoot -16.1633 -5.06154
ltoes 2.29714
3
root -14.4643 17.3935 -0.56852 -178.147 1.8676 -179.546
lowerback 4.65394 -0.625064 -4.1602
upperback 3.45326 -0.790922 1.30622
thorax 1.03187 -0.404266 3.71175
lowerneck -12.7658 -4.10679 -9.16848
upperneck 37.3432 -0.171116 2.11283
head 15.3492 0.206382 2.84575
rclavicle -1.43933e-014 -4.89507e-015
rhumerus -31.7277 -14.1507 -73.7084
rradius 31.9666
rwrist -9.70636
rhand -20.8955 13.1679
rfingers 7.12502
rthumb 5.47529 -16.7413
lclavicle -1.43933e-014 -4.89507e-015
lhumerus -25.9432 13.4377 78.0967
lradius 22.471
lwrist -6.48447
lhand -16.9543 25.4009
lfingers 7.12502
lthumb 9.27947 55.1767
rfemur -29.0865 -8.68917 18.0599
rtibia 63.41
rfoot -12.4221 -5.37864
rtoes -1.4261
lfemur -0.0593207 4.74766 -23.1799
ltibia 21.0389
lfoot -16.2884 -5.12245
ltoes -0.621276
4
root -14.4697 17.3926 -0.596235 -178.161 1.74983 -179.592
lowerback 4.70814 -0.826988 -4.38393
upperback 3.26595 -1.08661 1.45053
thorax 0.84488 -0.555548 4.00007
lowerneck -11.9218 -3.90616 -9.46743
upperneck 36.9621 0.121848 2.11509
head 14.9495 0.310638 2.92574
rclavicle -2.13694e-015 1.19768e-014
rhumerus -32.1972 -13.644 -73.5413
rradius 32.0754
rwrist -9.78836
rhand -20.8082 13.5403
rfingers 7.12502
rthumb 5.55955 -16.3667
lclavicle -2.13694e-015 1.19768e-014
lhumerus -26.6071 12.7694 78.3447
lradius 23.2935
lwrist -5.2824
lhand -17.8884 25.4896
lfingers 7.12502
lthumb 8.37806 55.3034
rfemur -29.6587 -9.08438 18.1606
rtibia 63.2952
rfoot -12.0987 -5.70849
rtoes 0.475822
lfemur 0.0846682 4.60975 -23.2337
ltibia 20.9973
lfoot -16.2891 -5.31616
ltoes 1.74173
5
root -14.471 17.3891 -0.625378 -178.044 1.84887 -179.724
lowerback 4.50826 -0.871068 -4.66903
upperback 3.25232 -1.15186 1.49027
thorax 0.957451 -0.598198 4.20135
lowerneck -12.0965 -3.95138 -9.6152
upperneck 37.3439 0.17037 2.21056
head 15.1775 0.330481 3.02117
rclavicle 1.04113e-014 -2.22142e-014
rhumerus -32.4001 -13.5381 -73.4702
rradius 32.1703
rwrist -9.91432
rhand -20.7819 13.5415
rfingers 7.12502
rthumb 5.58492 -16.3649
lclavicle 1.04113e-014 -2.22142e-014
lhumerus -26.611 10.52 79.378
lradius 23.8336
lwrist -0.166926
lhand -21.48 24.0379
lfingers 7.12502
lthumb 4.9109 53.961
rfemur -30.3892 -9.26787 18.2339
rtibia 63.0299
rfoot -12.6668 -5.76002
rtoes -0.558994
lfemur 0.0746479 4.56414 -23.4155
ltibia 21.012
lfoot -16.3872 -5.35113
ltoes 4.9545
6
root -14.471 17.3841 -0.656146 -178.056 1.80469 -179.657
lowerback 4.50159 -0.812967 -4.56734
upperback 3.40065 -1.05679 1.43613
thorax 1.101 -0.550007 4.08335
lowerneck -12.8916 -4.19326 -9.43605
upperneck 38.0278 -0.114247 2.34566
head 15.7269 0.245622 3.04143
rclavicle -1.01007e-014 4.96962e-017
rhumerus -32.4425 -14.1459 -73.5206
rradius 32.1322
rwrist -10.0918
rhand -20.9106 13.759
rfingers 7.12502
rthumb 5.46062 -16.1506
lclavicle -1.01007e-014 4.96962e-017
lhumerus -25.9334 12.1427 78.4007
lradius 23.8197
lwrist -6.52544
lhand -16.4713 24.5903
lfingers 7.12502
lthumb 9.74547 54.3448
rfemur -30.9077 -9.65254 18.5293
rtibia 62.548
rfoot -13.6501 -5.76073
rtoes -2.95625
lfemur 0.234615 4.52025 -23.3372
ltibia 20.9593
lfoot -16.5496 -5.3869
ltoes 5.59236
